<svg xmlns="http://www.w3.org/2000/svg" data-name="Layer 2" viewBox="0 0 64 80" x="0px" y="0px"><title>COFFEE STUFF OK</title><path d="M51.7,6.77a.5.5,0,0,0-.41-.21H46.92a.5.5,0,0,0-.47.66l.91,2.67H29.81a.5.5,0,0,0-.5.5v3.5H21.71a.5.5,0,0,0-.5.5v7.94a.49.49,0,0,0,.05.21h0l4.3,8.5v4.21l-4.33,15.6a.47.47,0,0,0,0,.07.47.47,0,0,0,0,.07v6.16a.49.49,0,0,0,.06.23l0,0a.49.49,0,0,0,.11.12c1,1,6.18,1.26,10.6,1.26s9.58-.23,10.6-1.26a.49.49,0,0,0,.11-.12l0,0a.49.49,0,0,0,.06-.23V51a.47.47,0,0,0,0-.07.47.47,0,0,0,0-.07l-4.33-15.6V31.06l4.3-8.5h0a.49.49,0,0,0,.05-.21V14.39a.5.5,0,0,0-.5-.5H34.69v-1H51.2a.5.5,0,0,0,.5-.5v-2a.5.5,0,0,0-.5-.5h-.34l.91-2.67A.5.5,0,0,0,51.7,6.77ZM26.44,35.83H37.56l4.17,15c-.84.36-4.39.8-9.73.8s-8.9-.44-9.73-.8Zm11-1H26.56V31.44H37.44ZM22.21,57V51.84c1.88.65,6.1.81,9.79.81s7.91-.16,9.79-.81V57c-.71.36-4.31.83-9.79.83S22.92,57.35,22.21,57ZM37.63,30.44H26.37l-3.85-7.61h19Zm4.16-8.61H22.21V14.89H41.79Zm-8.11-7.94H30.31v-1h3.37Zm17-2H30.31v-1H50.7Zm-2.3-2-.79-2.33h3L49.8,9.89Z"/></svg>