<svg xmlns="http://www.w3.org/2000/svg" xmlns:xlink="http://www.w3.org/1999/xlink" version="1.1" x="0px" y="0px" viewBox="0 0 100 125" enable-background="new 0 0 100 100" xml:space="preserve"><g><path d="M43.19,34.772c-0.182,0.067-0.313,0.229-0.34,0.421c-0.328,2.333-1.439,4.322-3.498,6.26   c-0.784,0.737-1.707,1.285-2.683,1.866c-1.106,0.657-2.25,1.336-3.177,2.317c-1.653,1.75-2.862,3.714-3.918,6.377   c-0.1,0.248,0.007,0.536,0.247,0.661c0.917,0.473,1.963,0.716,3.112,0.716c3.142,0,6.585-1.775,9.208-4.752   c4.133-4.676,4.839-10.85,1.578-13.763C43.578,34.746,43.374,34.705,43.19,34.772z M41.356,47.94   c-2.391,2.715-5.618,4.396-8.42,4.396c-0.798,0-1.534-0.134-2.193-0.398c0.959-2.297,2.056-4.032,3.516-5.579   c0.826-0.874,1.856-1.486,2.949-2.134c0.982-0.584,2-1.187,2.867-2.004c1.929-1.817,3.097-3.688,3.617-5.821   C45.697,39.153,44.774,44.073,41.356,47.94z"/><path d="M34.152,44.351c0.575-0.4,1.164-0.781,1.75-1.159c3.133-2.023,6.371-4.116,6.37-8.736c0-0.224-0.142-0.423-0.352-0.496   c-0.802-0.279-1.67-0.421-2.585-0.421c-3.188,0-6.597,1.705-9.119,4.559c-3.802,4.304-4.581,10.084-1.811,13.449   c0.101,0.121,0.25,0.191,0.406,0.191c0.028,0,0.057-0.002,0.085-0.006c0.186-0.03,0.34-0.155,0.406-0.332   C30.597,47.992,32.138,45.754,34.152,44.351z M28.682,50.109c-1.769-3.038-0.861-7.714,2.32-11.315   c2.325-2.631,5.439-4.203,8.33-4.203c0.659,0,1.289,0.084,1.877,0.249c-0.175,3.783-2.948,5.575-5.88,7.468   c-0.596,0.386-1.195,0.773-1.779,1.18C31.546,44.885,29.984,47.001,28.682,50.109z"/><path d="M54.953,63.046c-0.302-1.031-0.371-2.1-0.443-3.232c-0.082-1.286-0.168-2.613-0.625-3.886   c-0.812-2.274-2.011-4.241-3.892-6.38c-0.178-0.206-0.481-0.241-0.7-0.082c-3.189,2.289-4.032,7.674-2.003,12.811   c1.871,4.734,5.75,8.043,9.431,8.045c0,0,0,0,0.001,0c0.735,0,1.446-0.132,2.114-0.393c0.181-0.067,0.31-0.234,0.331-0.424   c0.024-0.194-0.061-0.384-0.22-0.496C57.016,67.654,55.747,65.759,54.953,63.046z M56.722,69.269L56.722,69.269   c-3.261-0.003-6.736-3.035-8.453-7.38c-1.768-4.475-1.224-9.106,1.262-11.267c1.603,1.887,2.647,3.647,3.364,5.659   c0.407,1.133,0.484,2.33,0.565,3.601c0.072,1.138,0.149,2.315,0.483,3.46c0.744,2.542,1.883,4.433,3.548,5.865   C57.24,69.248,56.983,69.269,56.722,69.269z"/><path d="M52.412,48.545c-0.502,0-0.997,0.053-1.475,0.16c-0.183,0.041-0.328,0.176-0.387,0.354   c-0.057,0.179-0.015,0.373,0.11,0.514c2.443,2.705,3.738,5.096,4.074,7.523c0.095,0.695,0.167,1.394,0.239,2.088   c0.38,3.709,0.774,7.546,4.891,9.64c0.074,0.039,0.156,0.058,0.238,0.058c0.134,0,0.265-0.052,0.366-0.148   c2.812-2.7,3.465-7.646,1.625-12.302C60.234,51.718,56.343,48.545,52.412,48.545z M60.004,67.706   c-3.29-1.872-3.626-5.155-3.983-8.628c-0.072-0.707-0.146-1.418-0.241-2.125c-0.334-2.418-1.514-4.77-3.689-7.347   c3.524-0.176,7.299,2.83,9.024,7.211C62.711,60.861,62.245,65.266,60.004,67.706z"/><path d="M72.857,37.988c-0.168-0.101-0.373-0.101-0.542-0.002c-2.028,1.207-4.261,1.588-7.073,1.188   c-1.064-0.151-2.068-0.526-3.133-0.925c-1.205-0.453-2.451-0.919-3.798-1.029c-2.46-0.197-4.689,0.09-7.416,0.929   c-0.259,0.08-0.415,0.342-0.362,0.606c0.77,3.845,5.334,6.827,10.851,7.091c0.265,0.012,0.528,0.02,0.789,0.02   c5.913,0,10.717-3.25,10.936-7.399C73.121,38.272,73.022,38.089,72.857,37.988z M61.435,44.796   c-4.807-0.231-8.805-2.63-9.754-5.783c2.389-0.688,4.369-0.92,6.547-0.744c1.201,0.097,2.323,0.519,3.515,0.965   c1.069,0.401,2.175,0.815,3.354,0.982c2.629,0.372,4.813,0.108,6.805-0.821C71.007,42.658,66.642,45.042,61.435,44.796z"/><path d="M51.201,37.551c3.481-1.123,6.189-1.311,8.528-0.622c0.673,0.198,1.34,0.421,2.001,0.641   c1.909,0.636,3.884,1.293,5.83,1.293c1.841,0,3.467-0.586,4.967-1.789c0.174-0.141,0.24-0.375,0.166-0.586   c-1.303-3.674-5.544-6.303-10.55-6.542c-5.781-0.284-10.735,2.752-11.619,6.997c-0.039,0.183,0.023,0.373,0.163,0.499   C50.826,37.567,51.023,37.607,51.201,37.551z M62.095,30.997c4.347,0.207,8.172,2.444,9.47,5.49   c-1.23,0.902-2.512,1.325-4.004,1.325c-1.775,0-3.582-0.602-5.499-1.239c-0.673-0.225-1.353-0.451-2.038-0.651   c-0.999-0.294-2.082-0.444-3.218-0.444c-1.501,0-3.143,0.257-4.991,0.788C53.074,33,57.271,30.774,62.095,30.997z"/></g><text x="0" y="115" fill="#000000" font-size="5px" font-weight="bold" font-family="'Helvetica Neue', Helvetica, Arial-Unicode, Arial, Sans-serif">Created by 시 홍</text><text x="0" y="120" fill="#000000" font-size="5px" font-weight="bold" font-family="'Helvetica Neue', Helvetica, Arial-Unicode, Arial, Sans-serif">from the Noun Project</text></svg>